<?xml version="1.0" encoding="utf-8"?>
<svg xmlns="http://www.w3.org/2000/svg" version="1.1" viewBox="0 0 1400 340">
	<title>The titlepage for the Standard Ebooks edition of Ticket No. 9672, by Jules Verne</title>
	<g aria-label="TICKET NO. 9672">
		<path d="M245.40,68.25l0.00-15.44l54.27,0.00l0.00,15.44l-18.34,0.00l0.00,61.75l-17.59,0.00l0.00-61.75l-18.34,0.00z"/>
		<path d="M328.62,52.81l0.00,77.19l-17.59,0.00l0.00-77.19l17.59,0.00z"/>
		<path d="M382.93,114.09c8.98,0.00,15.16-4.77,15.16-4.77l7.49,14.97s-8.61,7.11-25.36,7.11c-21.80,0.00-41.82-17.78-41.82-39.86c0.00-22.18,19.93-40.14,41.82-40.14c16.75,0.00,25.36,7.11,25.36,7.11l-7.49,14.97s-6.18-4.77-15.16-4.77c-17.68,0.00-25.45,12.35-25.45,22.64c0.00,10.39,7.77,22.74,25.45,22.74z"/>
		<path d="M487.58,130.00l-24.23,0.00l-28.44-32.75l0.00,32.75l-17.59,0.00l0.00-77.19l17.59,0.00l0.00,31.53l26.48-31.53l21.33,0.00l-31.06,36.58z"/>
		<path d="M540.11,52.81l0.00,15.44l-26.57,0.00l0.00,15.35l25.45,0.00l0.00,15.44l-25.45,0.00l0.00,15.53l26.57,0.00l0.00,15.44l-44.16,0.00l0.00-77.19l44.16,0.00z"/>
		<path d="M550.35,68.25l0.00-15.44l54.27,0.00l0.00,15.44l-18.34,0.00l0.00,61.75l-17.59,0.00l0.00-61.75l-18.34,0.00z"/>
		<path d="M664.12,82.09l0.00,47.91l-17.59,0.00l0.00-77.19l17.59,0.00l30.69,47.91l0.19,0.00l0.00-47.91l17.59,0.00l0.00,77.19l-17.59,0.00l-30.69-47.91l-0.19,0.00z"/>
		<path d="M725.35,91.36c0.00-22.55,17.68-39.95,38.92-39.95c21.43,0.00,38.83,17.40,38.83,39.95s-16.65,40.05-38.83,40.05c-22.83,0.00-38.92-17.50-38.92-40.05z  M744.35,91.36c0.00,11.51,5.52,23.02,19.93,23.02c14.04,0.00,19.84-11.51,19.84-23.02s-6.18-23.02-19.84-23.02c-13.57,0.00-19.93,11.51-19.93,23.02z"/>
		<path d="M826.54,109.98c5.99,0.00,10.76,4.77,10.76,10.76c0.00,5.89-4.77,10.67-10.76,10.67c-5.89,0.00-10.67-4.77-10.67-10.67c0.00-5.99,4.77-10.76,10.67-10.76z"/>
		<path d="M888.65,130.00l22.74-26.48s-1.96,1.12-5.52,1.12c-10.57,0.00-24.61-9.08-24.61-27.04c0.00-18.25,14.69-26.20,28.63-26.20c17.31,0.00,30.78,11.42,30.78,26.20c0.00,13.57-4.12,19.84-12.16,30.78l-18.15,21.61l-21.71,0.00z  M922.43,77.60c0.00-6.74-4.87-11.70-11.70-11.70s-11.88,4.96-11.88,11.70c0.00,6.92,5.24,11.98,11.88,11.98c6.46,0.00,11.70-5.05,11.70-11.98z"/>
		<path d="M1002.19,52.81l-22.74,26.48s1.96-1.12,5.52-1.12c10.57,0.00,24.61,9.08,24.61,27.04c0.00,18.25-14.69,26.20-28.63,26.20c-17.31,0.00-30.78-11.42-30.78-26.20c0.00-13.57,4.12-19.84,12.16-30.78l18.15-21.61l21.71,0.00z  M968.42,105.20c0.00,6.74,4.87,11.70,11.70,11.70s11.88-4.96,11.88-11.70c0.00-6.92-5.24-11.98-11.88-11.98c-6.46,0.00-11.70,5.05-11.70,11.98z"/>
		<path d="M1084.11,52.81l0.00,5.15l-40.80,72.05l-20.77,0.00l35.56-61.75l-33.22,0.00l0.00-15.44l59.23,0.00z"/>
		<path d="M1118.86,66.28c-8.42,0.00-13.75,14.69-13.75,14.69l-14.69-7.11s7.49-22.46,28.44-22.46c26.48,0.00,29.94,17.40,29.94,27.13c0.00,18.06-27.23,36.02-27.23,36.02l28.63,0.00l0.00,15.44l-60.16,0.00l0.00-4.40s39.77-32.84,39.77-47.06c0.00-2.81-0.65-12.26-10.95-12.26z"/>
	</g>
	<g aria-label="JULES VERNE">
		<path d="M469.18,232.11l0.00,41.54c0.00,11.37-6.46,17.40-18.04,17.40c-8.28,0.00-13.54-5.54-13.54-5.54l4.21-11.02s4.14,3.93,7.51,3.93c3.79,0.00,6.67-2.32,6.67-8.14l0.00-38.18l13.19,0.00z"/>
		<path d="M526.39,232.11l0.00,37.33c0.00,14.32-7.86,21.61-22.60,21.61s-22.60-7.30-22.60-21.61l0.00-37.33l13.19,0.00l0.00,33.47c0.00,9.68,2.95,12.49,9.40,12.49s9.40-2.81,9.40-12.49l0.00-33.47l13.19,0.00z"/>
		<path d="M552.30,232.11l0.00,46.32l19.93,0.00l0.00,11.58l-33.12,0.00l0.00-57.89l13.19,0.00z"/>
		<path d="M616.88,232.11l0.00,11.58l-19.93,0.00l0.00,11.51l19.09,0.00l0.00,11.58l-19.09,0.00l0.00,11.65l19.93,0.00l0.00,11.58l-33.12,0.00l0.00-57.89l33.12,0.00z"/>
		<path d="M650.79,231.05c10.53,0.00,17.96,5.47,17.96,5.47l-5.33,10.53s-5.75-4.00-11.72-4.00c-4.49,0.00-6.88,2.04-6.88,5.19c0.00,3.23,5.47,5.54,12.07,8.35c6.46,2.74,13.54,8.21,13.54,15.79c0.00,13.82-10.53,18.67-21.82,18.67c-13.54,0.00-21.75-7.65-21.75-7.65l6.60-11.09s7.72,6.53,14.18,6.53c2.88,0.00,8.35-0.28,8.35-5.68c0.00-4.21-6.18-6.11-13.05-9.54c-6.95-3.44-11.02-8.84-11.02-14.88c0.00-10.81,9.54-17.68,18.88-17.68z"/>
		<path d="M717.91,290.00l-24.28-57.89l14.88,0.00l14.60,38.04l14.60-38.04l14.88,0.00l-24.28,57.89l-10.39,0.00z"/>
		<path d="M792.95,232.11l0.00,11.58l-19.93,0.00l0.00,11.51l19.09,0.00l0.00,11.58l-19.09,0.00l0.00,11.65l19.93,0.00l0.00,11.58l-33.12,0.00l0.00-57.89l33.12,0.00z"/>
		<path d="M805.53,232.11l20.70,0.00c10.74,0.00,18.88,5.82,18.88,17.19c0.00,8.70-4.77,14.53-11.86,16.77l19.93,23.93l-16.77,0.00l-17.68-22.88l0.00,22.88l-13.19,0.00l0.00-57.89z  M818.72,257.79l1.54,0.00c4.98,0.00,10.95-0.35,10.95-7.58s-5.96-7.58-10.95-7.58l-1.54,0.00l0.00,15.16z"/>
		<path d="M873.96,254.07l0.00,35.93l-13.19,0.00l0.00-57.89l13.19,0.00l23.02,35.93l0.14,0.00l0.00-35.93l13.19,0.00l0.00,57.89l-13.19,0.00l-23.02-35.93l-0.14,0.00z"/>
		<path d="M956.86,232.11l0.00,11.58l-19.93,0.00l0.00,11.51l19.09,0.00l0.00,11.58l-19.09,0.00l0.00,11.65l19.93,0.00l0.00,11.58l-33.12,0.00l0.00-57.89l33.12,0.00z"/>
	</g>
</svg>
